# xmcd
#
# Track frame offsets: 
#        150
#        19523
#        34565
#        64238
#        84603
#        99595
#        130963
#        154260
#        173818
#        199690
#        221823
#        251630
#
# Disc length: 3531 seconds
#
# Revision: 0
# Processed by: cddbd v1.5.2PL0 Copyright (c) Steve Scherf et al.
# Submitted via: ExactAudioCopy v1.0b3
#
DISCID=a30dc90c
DTITLE=Robert Noll Blues Mission - Happy Bluesday
DYEAR=1995
DGENRE=Blues
TTITLE0=Happy Bluesday
TTITLE1=Freezer Burn
TTITLE2=I Got The Blues
TTITLE3=Dear friend
TTITLE4=Cold Women With Warm Hearts
TTITLE5=Mountain Top
TTITLE6=I'll Play The Blues For You
TTITLE7=Love Her With A Feeling
TTITLE8=As The Years Go Passin' By
TTITLE9=Jenie
TTITLE10=Cheer Up
TTITLE11=(bonus track)
EXTD=
EXTT0=
EXTT1=
EXTT2=
EXTT3=
EXTT4=
EXTT5=
EXTT6=
EXTT7=
EXTT8=
EXTT9=
EXTT10=
EXTT11=
PLAYORDER=
